  0
SECTION
  2
HEADER
  9
$ACADVER
  1
AC1009
  9
$INSBASE
 10
0.0
 20
0.0
 30
0.0
  9
$EXTMIN
 10
110.383253813369
 20
103.42242324737801
 30
-0.0015258207003583
  9
$EXTMAX
 10
152.06984166517529
 20
150.78702871399241
 30
0.0000000349246037
  9
$LIMMIN
 10
0.0
 20
0.0
  9
$LIMMAX
 10
12.0
 20
9.0
  9
$ORTHOMODE
 70
     0
  9
$REGENMODE
 70
     1
  9
$FILLMODE
 70
     1
  9
$QTEXTMODE
 70
     0
  9
$MIRRTEXT
 70
     0
  9
$DRAGMODE
 70
     2
  9
$LTSCALE
 40
1.0
  9
$OSMODE
 70
   679
  9
$ATTMODE
 70
     1
  9
$TEXTSIZE
 40
0.2
  9
$TRACEWID
 40
0.05
  9
$TEXTSTYLE
  7
STANDARD
  9
$CLAYER
  8
0
  9
$CELTYPE
  6
BYLAYER
  9
$CECOLOR
 62
     1
  9
$DIMSCALE
 40
1.0
  9
$DIMASZ
 40
0.18
  9
$DIMEXO
 40
0.0625
  9
$DIMDLI
 40
0.38
  9
$DIMRND
 40
0.0
  9
$DIMDLE
 40
0.0
  9
$DIMEXE
 40
0.18
  9
$DIMTP
 40
0.0
  9
$DIMTM
 40
0.0
  9
$DIMTXT
 40
0.18
  9
$DIMCEN
 40
0.09
  9
$DIMTSZ
 40
0.0
  9
$DIMTOL
 70
     0
  9
$DIMLIM
 70
     0
  9
$DIMTIH
 70
     1
  9
$DIMTOH
 70
     1
  9
$DIMSE1
 70
     0
  9
$DIMSE2
 70
     0
  9
$DIMTAD
 70
     0
  9
$DIMZIN
 70
     0
  9
$DIMBLK
  1

  9
$DIMASO
 70
     1
  9
$DIMSHO
 70
     1
  9
$DIMPOST
  1

  9
$DIMAPOST
  1

  9
$DIMALT
 70
     0
  9
$DIMALTD
 70
     2
  9
$DIMALTF
 40
25.399999999999999
  9
$DIMLFAC
 40
1.0
  9
$DIMTOFL
 70
     0
  9
$DIMTVP
 40
0.0
  9
$DIMTIX
 70
     0
  9
$DIMSOXD
 70
     0
  9
$DIMSAH
 70
     0
  9
$DIMBLK1
  1

  9
$DIMBLK2
  1

  9
$DIMSTYLE
  2
STANDARD
  9
$DIMCLRD
 70
     0
  9
$DIMCLRE
 70
     0
  9
$DIMCLRT
 70
     0
  9
$DIMTFAC
 40
1.0
  9
$DIMGAP
 40
0.09
  9
$LUNITS
 70
     2
  9
$LUPREC
 70
     4
  9
$SKETCHINC
 40
0.1
  9
$FILLETRAD
 40
0.0
  9
$AUNITS
 70
     0
  9
$AUPREC
 70
     0
  9
$MENU
  1
.
  9
$ELEVATION
 40
0.0
  9
$PELEVATION
 40
0.0
  9
$THICKNESS
 40
0.0
  9
$LIMCHECK
 70
     0
  9
$BLIPMODE
 70
     0
  9
$CHAMFERA
 40
0.0
  9
$CHAMFERB
 40
0.0
  9
$SKPOLY
 70
     0
  9
$TDCREATE
 40
2458587.5850392361
  9
$TDUPDATE
 40
2458591.4253334729
  9
$TDINDWG
 40
0.3781560648
  9
$TDUSRTIMER
 40
0.3781560185
  9
$USRTIMER
 70
     1
  9
$ANGBASE
 50
0.0
  9
$ANGDIR
 70
     0
  9
$PDMODE
 70
     0
  9
$PDSIZE
 40
0.0
  9
$PLINEWID
 40
0.0
  9
$COORDS
 70
     1
  9
$SPLFRAME
 70
     0
  9
$SPLINETYPE
 70
     6
  9
$SPLINESEGS
 70
     8
  9
$ATTDIA
 70
     0
  9
$ATTREQ
 70
     1
  9
$HANDLING
 70
     1
  9
$HANDSEED
  5
BFE
  9
$SURFTAB1
 70
     6
  9
$SURFTAB2
 70
     6
  9
$SURFTYPE
 70
     6
  9
$SURFU
 70
     6
  9
$SURFV
 70
     6
  9
$UCSNAME
  2

  9
$UCSORG
 10
0.0
 20
0.0
 30
0.0
  9
$UCSXDIR
 10
1.0
 20
0.0
 30
0.0
  9
$UCSYDIR
 10
0.0
 20
1.0
 30
0.0
  9
$PUCSNAME
  2

  9
$PUCSORG
 10
0.0
 20
0.0
 30
0.0
  9
$PUCSXDIR
 10
1.0
 20
0.0
 30
0.0
  9
$PUCSYDIR
 10
0.0
 20
1.0
 30
0.0
  9
$USERI1
 70
     0
  9
$USERI2
 70
     0
  9
$USERI3
 70
     0
  9
$USERI4
 70
     0
  9
$USERI5
 70
     0
  9
$USERR1
 40
0.0
  9
$USERR2
 40
0.0
  9
$USERR3
 40
0.0
  9
$USERR4
 40
0.0
  9
$USERR5
 40
0.0
  9
$WORLDVIEW
 70
     1
  9
$SHADEDGE
 70
     3
  9
$SHADEDIF
 70
    70
  9
$TILEMODE
 70
     1
  9
$MAXACTVP
 70
    64
  9
$PLIMCHECK
 70
     0
  9
$PEXTMIN
 10
0.0
 20
0.0
 30
0.0
  9
$PEXTMAX
 10
0.0
 20
0.0
 30
0.0
  9
$PLIMMIN
 10
0.0
 20
0.0
  9
$PLIMMAX
 10
12.0
 20
9.0
  9
$UNITMODE
 70
     0
  9
$VISRETAIN
 70
     1
  9
$PLINEGEN
 70
     0
  9
$PSLTSCALE
 70
     1
  0
ENDSEC
  0
SECTION
  2
TABLES
  0
TABLE
  2
VPORT
 70
     1
  0
VPORT
  2
*ACTIVE
 70
     0
 10
0.0
 20
0.0
 11
1.0
 21
1.0
 12
133.08006843661329
 22
126.5362503474266
 13
0.0
 23
0.0
 14
0.5
 24
0.5
 15
0.5
 25
0.5
 16
0.0
 26
0.0
 36
1.0
 17
0.0
 27
0.0
 37
0.0
 40
29.907325300612062
 41
2.1841463414634141
 42
50.0
 43
0.0
 44
0.0
 50
0.0
 51
0.0
 71
     0
 72
  1000
 73
     1
 74
     3
 75
     0
 76
     1
 77
     0
 78
     0
  0
ENDTAB
  0
TABLE
  2
LTYPE
 70
     2
  0
LTYPE
  2
CONTINUOUS
 70
     0
  3
Solid line
 72
    65
 73
     0
 40
0.0
  0
ENDTAB
  0
TABLE
  2
LAYER
 70
     2
  0
LAYER
  2
0
 70
     0
 62
     7
  6
CONTINUOUS
  0
LAYER
  2
DEFPOINTS
 70
     0
 62
     7
  6
CONTINUOUS
  0
ENDTAB
  0
TABLE
  2
STYLE
 70
     2
  0
STYLE
  2
STANDARD
 70
     0
 40
0.0
 41
1.0
 50
0.0
 71
     0
 42
0.2
  3
txt
  4

  0
STYLE
  2
ANNOTATIVE
 70
     0
 40
0.0
 41
1.0
 50
0.0
 71
     0
 42
0.2
  3
txt
  4

  0
ENDTAB
  0
TABLE
  2
VIEW
 70
     0
  0
ENDTAB
  0
TABLE
  2
UCS
 70
     0
  0
ENDTAB
  0
TABLE
  2
APPID
 70
     9
  0
APPID
  2
ACAD
 70
     0
  0
APPID
  2
ACADANNOPO
 70
     0
  0
APPID
  2
ACADANNOTATIVE
 70
     0
  0
APPID
  2
ACAD_DSTYLE_DIMJAG
 70
     0
  0
APPID
  2
ACAD_DSTYLE_DIMTALN
 70
     0
  0
APPID
  2
ACAD_MLEADERVER
 70
     0
  0
APPID
  2
ACAD_NAV_VCDISPLAY
 70
     0
  0
APPID
  2
ACAD_EXEMPT_FROM_CAD_STANDARDS
 70
     0
  0
APPID
  2
ACAD_DSTYLE_DIMRADIAL_EXTENSION
 70
     0
  0
ENDTAB
  0
TABLE
  2
DIMSTYLE
 70
     3
  0
DIMSTYLE
  2
STANDARD
 70
     0
  3

  4

  5

  6

  7

 40
1.0
 41
0.18
 42
0.0625
 43
0.38
 44
0.18
 45
0.0
 46
0.0
 47
0.0
 48
0.0
140
0.18
141
0.09
142
0.0
143
25.399999999999999
144
1.0
145
0.0
146
1.0
147
0.09
 71
     0
 72
     0
 73
     1
 74
     1
 75
     0
 76
     0
 77
     0
 78
     0
170
     0
171
     2
172
     0
173
     0
174
     0
175
     0
176
     0
177
     0
178
     0
  0
DIMSTYLE
  2
ANNOTATIVE
 70
     0
  3

  4

  5

  6

  7

 40
0.0
 41
0.18
 42
0.0625
 43
0.38
 44
0.18
 45
0.0
 46
0.0
 47
0.0
 48
0.0
140
0.18
141
0.09
142
0.0
143
25.399999999999999
144
1.0
145
0.0
146
1.0
147
0.09
 71
     0
 72
     0
 73
     1
 74
     1
 75
     0
 76
     0
 77
     0
 78
     0
170
     0
171
     2
172
     0
173
     0
174
     0
175
     0
176
     0
177
     0
178
     0
  0
ENDTAB
  0
ENDSEC
  0
SECTION
  2
BLOCKS
  0
BLOCK
  8
0
  2
$MODEL_SPACE
 70
     0
 10
0.0
 20
0.0
 30
0.0
  3
$MODEL_SPACE
  1

  0
ENDBLK
  5
21
  8
0
  0
BLOCK
 67
     1
  8
0
  2
$PAPER_SPACE
 70
     0
 10
0.0
 20
0.0
 30
0.0
  3
$PAPER_SPACE
  1

  0
ENDBLK
  5
5B
 67
     1
  8
0
  0
BLOCK
  8
0
 62
     1
  2
A$C1BA67B4B
 70
     0
 10
0.0
 20
0.0
 30
0.0
  3
A$C1BA67B4B
  1

  0
ARC
  5
566
  8
0
 62
     1
 10
0.3926047151730358
 20
1.601836433890611
 30
0.0
 40
0.3926047855826816
 50
266.28707991659832
 51
349.16634036018741
  0
ARC
  5
567
  8
0
 62
     1
 10
1.6149663779766139
 20
1.4757621769221601
 30
0.0
 40
1.47576215867806
 50
180.96306969457149
 51
252.7698455216877
  0
ENDBLK
  5
56B
  8
0
 62
     1
  0
BLOCK
  8
0
 62
     1
  2
*D3
 70
     1
 10
0.0
 20
0.0
 30
0.0
  3
*D3
  1

  0
LINE
  5
A3F
  8
0
 62
     0
 10
110.0636232783999
 20
122.52389461634699
 30
0.0
 11
110.0636232783999
 21
151.4588806632396
 31
0.0
  0
LINE
  5
A40
  8
0
 62
     0
 10
152.55955984216911
 20
122.52389461634699
 30
0.0
 11
152.55955984216911
 21
151.4588806632396
 31
0.0
  0
LINE
  5
A41
  8
0
 62
     0
 10
110.24362327839989
 20
151.27888066323959
 30
0.0
 11
130.7742313965737
 21
151.27888066323959
 31
0.0
  0
LINE
  5
A42
  8
0
 62
     0
 10
152.3795598421691
 20
151.27888066323959
 30
0.0
 11
131.8489517239953
 21
151.27888066323959
 31
0.0
  0
SOLID
  5
A43
  8
0
 62
     0
 10
110.24362327839989
 20
151.30888066323959
 30
0.0
 11
110.24362327839989
 21
151.24888066323959
 31
0.0
 12
110.0636232783999
 22
151.27888066323959
 32
0.0
 13
110.0636232783999
 23
151.27888066323959
 33
0.0
  0
SOLID
  5
A44
  8
0
 62
     0
 10
152.3795598421691
 20
151.30888066323959
 30
0.0
 11
152.3795598421691
 21
151.24888066323959
 31
0.0
 12
152.55955984216911
 22
151.27888066323959
 32
0.0
 13
152.55955984216911
 23
151.27888066323959
 33
0.0
  0
INSERT
  5
A45
  8
0
 62
     1
  2
*U5
 10
0.0
 20
0.0
 30
0.0
  0
POINT
  5
A46
  8
DEFPOINTS
 62
     0
 10
110.0636232783999
 20
122.46139461634699
 30
0.0
  0
POINT
  5
A47
  8
DEFPOINTS
 62
     0
 10
152.55955984216911
 20
122.46139461634699
 30
0.0
  0
POINT
  5
A48
  8
DEFPOINTS
 62
     0
 10
152.55955984216911
 20
151.27888066323959
 30
0.0
  0
ENDBLK
  5
A4A
  8
0
 62
     1
  0
BLOCK
  8
0
 62
     1
  2
*D4
 70
     1
 10
0.0
 20
0.0
 30
0.0
  3
*D4
  1

  0
LINE
  5
BA4
  8
0
 62
     0
 10
110.3933965943678
 20
121.28228450362781
 30
0.0
 11
110.3933965943678
 21
153.86134580127711
 31
0.0
  0
LINE
  5
BA5
  8
0
 62
     0
 10
152.6456856031802
 20
119.77048186673569
 30
0.0
 11
152.6456856031802
 21
153.86134580127711
 31
0.0
  0
LINE
  5
BA6
  8
0
 62
     0
 10
110.57339659436779
 20
153.6813458012771
 30
0.0
 11
130.98236510968809
 21
153.6813458012771
 31
0.0
  0
LINE
  5
BA7
  8
0
 62
     0
 10
152.46568560318019
 20
153.6813458012771
 30
0.0
 11
132.05671708785999
 21
153.6813458012771
 31
0.0
  0
SOLID
  5
BA8
  8
0
 62
     0
 10
110.57339659436779
 20
153.7113458012771
 30
0.0
 11
110.57339659436779
 21
153.6513458012771
 31
0.0
 12
110.3933965943678
 22
153.6813458012771
 32
0.0
 13
110.3933965943678
 23
153.6813458012771
 33
0.0
  0
SOLID
  5
BA9
  8
0
 62
     0
 10
152.46568560318019
 20
153.7113458012771
 30
0.0
 11
152.46568560318019
 21
153.6513458012771
 31
0.0
 12
152.6456856031802
 22
153.6813458012771
 32
0.0
 13
152.6456856031802
 23
153.6813458012771
 33
0.0
  0
INSERT
  5
BAA
  8
0
 62
     1
  2
*U6
 10
0.0
 20
0.0
 30
0.0
  0
POINT
  5
BAB
  8
DEFPOINTS
 62
     0
 10
110.3933965943678
 20
121.21978450362781
 30
0.0
  0
POINT
  5
BAC
  8
DEFPOINTS
 62
     0
 10
152.6456856031802
 20
119.70798186673569
 30
0.0
  0
POINT
  5
BAD
  8
DEFPOINTS
 62
     0
 10
152.6456856031802
 20
153.6813458012771
 30
0.0
  0
ENDBLK
  5
BA2
  8
0
 62
     1
  0
BLOCK
  8
0
 62
     1
  2
*U5
 70
     1
 10
0.0
 20
0.0
 30
0.0
  3
*U5
  1

  0
TEXT
  5
BF7
  8
0
 62
     0
 10
130.86103903641001
 20
151.1904154517799
 30
0.0
 40
0.18
  1
42.4959
  0
ENDBLK
  5
BF9
  8
0
 62
     1
  0
BLOCK
  8
0
 62
     1
  2
*U6
 70
     1
 10
0.0
 20
0.0
 30
0.0
  3
*U6
  1

  0
TEXT
  5
BFB
  8
0
 62
     0
 10
131.0691727495244
 20
153.5929419813589
 30
0.0
 40
0.18
  1
42.2523
  0
ENDBLK
  5
BFD
  8
0
 62
     1
  0
ENDSEC
  0
SECTION
  2
ENTITIES
  0
ARC
  5
282
  8
0
 10
118.76354974852821
 20
128.57033721000889
 30
0.0
 40
14.19364277891632
 50
79.742159460529592
 51
103.46655096043111
  0
LINE
  5
286
  8
0
 10
122.0587358054632
 20
143.30755350297991
 30
0.0
 11
123.9154576392405
 21
146.03802489176411
 31
0.0
  0
ARC
  5
287
  8
0
 10
135.7965159990967
 20
131.33011338676249
 30
0.0
 40
18.907199914034521
 50
100.1536598072655
 51
128.931295177198
  0
LINE
  5
288
  8
0
 10
132.46339076003571
 20
149.9411983828073
 30
0.0
 11
134.13682925823969
 21
149.9411983828073
 31
0.0
  0
LINE
  5
289
  8
0
 10
134.13682925823969
 20
149.9411983828073
 30
0.0
 11
137.52648687482059
 21
148.6511038569835
 31
0.0
  0
LINE
  5
28A
  8
0
 10
137.52648687482059
 20
148.6511038569835
 30
0.0
 11
139.72186230048359
 21
147.47527212488691
 31
0.0
  0
LINE
  5
28B
  8
0
 10
139.72186230048359
 20
147.47527212488691
 30
0.0
 11
140.31640793989311
 21
147.156836553082
 31
0.0
  0
ARC
  5
28E
  8
0
 10
138.62515808035761
 20
143.08632189758569
 30
0.0
 40
4.4078810836942379
 50
32.38357792440496
 51
67.437703318384322
  0
LINE
  5
28F
  8
0
 10
142.3475319735953
 20
145.44711588413591
 30
0.0
 11
143.71140211415661
 21
143.53615422158521
 31
0.0
  0
LINE
  5
290
  8
0
 10
143.71140211415661
 20
143.53615422158521
 30
0.0
 11
144.60802577084999
 21
141.8828039194442
 31
0.0
  0
ARC
  5
2C7
  8
0
 10
155.7236887143581
 20
131.74209119031411
 30
0.0
 40
13.12833008039151
 50
188.0440130496531
 51
207.56798556414321
  0
ARC
  5
2D2
  8
0
 10
140.93090555764829
 20
115.0146165602732
 30
0.0
 40
6.7471678692769581
 50
359.25752774182757
 51
45.709532831369962
  0
ARC
  5
2D5
  8
0
 10
140.79646365117421
 20
117.90744732268401
 30
0.0
 40
3.9965868239788409
 50
282.52923395635281
 51
348.44029639390692
  0
ARC
  5
2D6
  8
0
 10
140.10091716745239
 20
118.1631884937032
 30
0.0
 40
5.7908952859408176
 50
323.2458858556372
 51
16.876063723752779
  0
LINE
  5
2D7
  8
0
 10
144.71198541207011
 20
117.1065755591959
 30
0.0
 11
144.74064528849581
 21
114.69802021849181
 31
0.0
  0
ARC
  5
2DB
  8
0
 10
143.73679048689229
 20
117.582593671257
 30
0.0
 40
6.0825288325135851
 50
1.8332897954825229
 51
57.557548369970981
  0
ARC
  5
2DC
  8
0
 10
144.35098134317829
 20
116.3250237691887
 30
0.0
 40
5.6548603485603417
 50
14.88017427412551
 51
37.344920939466881
  0
ARC
  5
2E0
  8
0
 10
144.95079902053141
 20
118.14303640364849
 30
0.0
 40
4.2162346481832262
 50
310.2944842126052
 51
22.482492779708419
  0
ARC
  5
2E1
  8
0
 10
138.09376174178959
 20
116.12279040004501
 30
0.0
 40
4.1501191968100777
 50
329.33308572356032
 51
20.831687171307621
  0
ARC
  5
2E2
  8
0
 10
138.43021445742201
 20
118.3730997074635
 30
0.0
 40
3.6260337661691771
 50
301.05602772714542
 51
347.66810078479449
  0
ARC
  5
2E3
  8
0
 10
135.10837341683529
 20
116.1055473678272
 30
0.0
 40
5.2597297727080337
 50
350.82421388585891
 51
22.58527000818491
  0
LINE
  5
2EF
  8
0
 10
112.74235690826229
 20
141.99288691679959
 30
0.0
 11
112.74743624651749
 21
141.54630151123669
 31
0.0
  0
ARC
  5
2F0
  8
0
 10
121.3540804477289
 20
142.99048856397641
 30
0.0
 40
8.7269697289234855
 50
189.52543999384659
 51
240.22951517843009
  0
ARC
  5
2F6
  8
0
 10
116.2878350269912
 20
128.9524317578981
 30
0.0
 40
2.7975115022502841
 50
267.43125694857031
 51
295.54440348795202
  0
ARC
  5
2F7
  8
0
 10
116.1025057896878
 20
121.21460141697111
 30
0.0
 40
4.9434933928593949
 50
89.305150040884982
 51
144.8134949260872
  0
ARC
  5
2F8
  8
0
 10
115.8929616145131
 20
121.3052554569273
 30
0.0
 40
4.7202291300007664
 50
144.2471358052604
 51
198.8588902578239
  0
ARC
  5
2F9
  8
0
 10
114.5644713341982
 20
119.2068436601278
 30
0.0
 40
3.190163205968767
 50
92.592225004036194
 51
169.65904052862831
  0
ARC
  5
2FA
  8
0
 10
115.6093749858839
 20
120.8470815888375
 30
0.0
 40
1.9509803534984309
 50
127.555729439283
 51
206.76187411743001
  0
ARC
  5
2FB
  8
0
 10
115.40224084431161
 20
119.8691596851469
 30
0.0
 40
1.5380852634848681
 50
132.34207160073069
 51
176.2935995143379
  0
ARC
  5
2FC
  8
0
 10
117.2891032544226
 20
119.9513277729549
 30
0.0
 40
3.1073149309612269
 50
160.1584124398332
 51
207.84370668454511
  0
ARC
  5
2FD
  8
0
 10
116.99256730300429
 20
117.9801767229735
 30
0.0
 40
2.505550557948776
 50
87.164130284092863
 51
168.02545109523399
  0
ARC
  5
2FE
  8
0
 10
119.6612024721092
 20
119.0726240810169
 30
0.0
 40
2.909219545934929
 50
151.00861997088029
 51
183.66824959615599
  0
LINE
  5
30C
  8
0
 10
118.09761720732131
 20
116.7718753992835
 30
0.0
 11
116.0050229706688
 21
115.8300554982512
 31
0.0
  0
LINE
  5
30D
  8
0
 10
116.0050229706688
 20
115.8300554982512
 30
0.0
 11
114.4744881823535
 21
115.0178435111593
 31
0.0
  0
LINE
  5
30E
  8
0
 10
114.4744881823535
 20
115.0178435111593
 30
0.0
 11
113.08621332968811
 21
114.19150603287341
 31
0.0
  0
LINE
  5
30F
  8
0
 10
113.08621332968811
 20
114.19150603287341
 30
0.0
 11
112.8565041661864
 21
114.05477713474291
 31
0.0
  0
ARC
  5
316
  8
0
 10
112.5520548944972
 20
113.863682256074
 30
0.0
 40
0.3594532120951543
 50
32.11542170777318
 51
138.31056869413891
  0
LINE
  5
318
  8
0
 10
112.3369026290855
 20
113.6993769583154
 30
0.0
 11
113.2645084271342
 21
112.626987464609
 31
0.0
  0
LINE
  5
319
  8
0
 10
113.2645084271342
 20
112.626987464609
 30
0.0
 11
113.9367423459918
 21
112.23809360038059
 31
0.0
  0
LINE
  5
31A
  8
0
 10
113.9367423459918
 20
112.23809360038059
 30
0.0
 11
114.18440715434269
 21
112.23809360038059
 31
0.0
  0
LINE
  5
31B
  8
0
 10
114.18440715434269
 20
112.23809360038059
 30
0.0
 11
114.3170853809599
 21
112.3706708643698
 31
0.0
  0
LINE
  5
31C
  8
0
 10
114.3170853809599
 20
112.3706708643698
 30
0.0
 11
115.4758061307481
 21
112.8214352315138
 31
0.0
  0
LINE
  5
31D
  8
0
 10
115.4758061307481
 20
112.8214352315138
 30
0.0
 11
117.1795322675538
 21
113.4842170398007
 31
0.0
  0
LINE
  5
31E
  8
0
 10
117.1795322675538
 20
113.4842170398007
 30
0.0
 11
119.9426296379622
 21
114.6686840083661
 31
0.0
  0
LINE
  5
31F
  8
0
 10
119.9426296379622
 20
114.6686840083661
 30
0.0
 11
119.14755833077319
 21
113.23771773947389
 31
0.0
  0
LINE
  5
320
  8
0
 10
119.14755833077319
 20
113.23771773947389
 30
0.0
 11
117.64810083283599
 21
110.8912859077676
 31
0.0
  0
LINE
  5
321
  8
0
 10
117.64810083283599
 20
110.8912859077676
 30
0.0
 11
117.2378324179988
 21
110.18639793520509
 31
0.0
  0
ARC
  5
322
  8
0
 10
117.22432755346649
 20
109.6428244599533
 30
0.0
 40
0.5437412108377638
 50
88.576802161668809
 51
172.8599248756631
  0
LINE
  5
323
  8
0
 10
112.2836292985988
 20
114.1027519345196
 30
0.0
 11
112.2688062955273
 21
113.893493313365
 31
0.0
  0
LINE
  5
324
  8
0
 10
112.2688062955273
 20
113.893493313365
 30
0.0
 11
112.3369026290855
 21
113.6993769583154
 31
0.0
  0
ARC
  5
325
  8
0
 10
119.7376734681223
 20
112.1404001451904
 30
0.0
 40
3.9019066156218281
 50
218.51871110047969
 51
248.028816723696
  0
LINE
  5
326
  8
0
 10
118.27781326077439
 20
108.52188063964179
 30
0.0
 11
118.77667553800011
 21
108.6331373525351
 31
0.0
  0
LINE
  5
327
  8
0
 10
118.77667553800011
 20
108.6331373525351
 30
0.0
 11
119.105953914477
 21
109.1624471641822
 31
0.0
  0
LINE
  5
328
  8
0
 10
119.105953914477
 20
109.1624471641822
 30
0.0
 11
119.9792599872621
 21
110.1924543407728
 31
0.0
  0
LINE
  5
329
  8
0
 10
119.9792599872621
 20
110.1924543407728
 30
0.0
 11
121.0130966325069
 21
111.3950978763188
 31
0.0
  0
LINE
  5
32A
  8
0
 10
121.0130966325069
 20
111.3950978763188
 30
0.0
 11
121.5848774767399
 21
112.0458121149986
 31
0.0
  0
LINE
  5
32B
  8
0
 10
121.5848774767399
 20
112.0458121149986
 30
0.0
 11
122.19604596748459
 21
112.85409891684181
 31
0.0
  0
LINE
  5
32E
  8
0
 10
127.99575544945741
 20
109.6634033142017
 30
0.0
 11
127.0709150464092
 21
108.76814135270421
 31
0.0
  0
ARC
  5
32F
  8
0
 10
129.42701806551469
 20
112.9130987127611
 30
0.0
 40
4.7677974950000097
 50
240.38495857999311
 51
280.11677008085758
  0
ARC
  5
330
  8
0
 10
137.07679595785601
 20
109.18778217248069
 30
0.0
 40
6.8807711221008283
 50
188.09025363739099
 51
236.85749089873099
  0
LINE
  5
331
  8
0
 10
133.31491782885419
 20
103.4264208596246
 30
0.0
 11
136.0455834363139
 21
104.4207415742421
 31
0.0
  0
LINE
  5
332
  8
0
 10
136.0455834363139
 20
104.4207415742421
 30
0.0
 11
136.66255804189149
 21
104.89720580379949
 31
0.0
  0
LINE
  5
333
  8
0
 10
136.66255804189149
 20
104.89720580379949
 30
0.0
 11
138.1620716214297
 21
107.0766679975703
 31
0.0
  0
LINE
  5
338
  8
0
 10
138.1620716214297
 20
107.0766679975703
 30
0.0
 11
138.16519264633541
 21
108.7634364915053
 31
0.0
  0
LINE
  5
3A9
  8
0
 10
122.07389388267811
 20
126.994173284257
 30
0.0
 11
122.465662007273
 21
127.6074844703747
 31
0.0
  0
ARC
  5
3AA
  8
0
 10
127.2568899543985
 20
131.02710779432959
 30
0.0
 40
5.724891192845015
 50
180.84180259480789
 51
213.7494334560991
  0
LINE
  5
3AB
  8
0
 10
122.49678544429609
 20
127.8465757283354
 30
0.0
 11
122.5592420666682
 21
127.7539836203093
 31
0.0
  0
LINE
  5
3AC
  8
0
 10
122.5592420666682
 20
127.7539836203093
 30
0.0
 11
122.465662007273
 21
127.6074844703747
 31
0.0
  0
ARC
  5
3AE
  8
0
 10
128.75752900530821
 20
125.23625474039611
 30
0.0
 40
0.4066102242475708
 50
126.6859520190835
 51
245.97783907818649
  0
ARC
  5
3AF
  8
0
 10
129.97269848429099
 20
122.52050139949419
 30
0.0
 40
3.3732349800698072
 50
75.242191338798008
 51
115.61060932316499
  0
ARC
  5
3B1
  8
0
 10
129.5272630737237
 20
129.4560370579882
 30
0.0
 40
4.6854672435040428
 50
258.4859099468344
 51
283.44930115151823
  0
ARC
  5
3B5
  8
0
 10
135.13418912066601
 20
126.3620435260919
 30
0.0
 40
1.311926892178638
 50
117.78617205302361
 51
208.45960073297061
  0
ARC
  5
3B9
  8
0
 10
134.30494175458699
 20
132.91974457479779
 30
0.0
 40
3.8902353976149442
 50
167.9667569777165
 51
231.9190652354485
  0
ARC
  5
3BA
  8
0
 10
137.59622995638031
 20
130.57447510081229
 30
0.0
 40
8.1613573098938446
 50
156.6894174344915
 51
187.98367323947161
  0
LINE
  5
3C8
  8
0
 10
127.36404741088219
 20
129.87347837136721
 30
0.0
 11
127.4894369761553
 21
131.36792382851769
 31
0.0
  0
ARC
  5
3C9
  8
0
 10
129.59030593271191
 20
131.5481390245258
 30
0.0
 40
2.1085843330289928
 50
184.90290205472499
 51
267.92543675728768
  0
ARC
  5
3E6
  8
0
 10
132.8667929012619
 20
122.7434795392886
 30
0.0
 40
7.1853763127768504
 50
77.67974517626908
 51
94.024012455791677
  0
ARC
  5
3E7
  8
0
 10
132.3605477290466
 20
126.2130309608244
 30
0.0
 40
3.6728449724891772
 50
97.116238031656025
 51
107.8594975792863
  0
ARC
  5
3E8
  8
0
 10
131.53281278840441
 20
128.94269751293189
 30
0.0
 40
0.8223431232027314
 50
111.29627406636151
 51
182.82712352464051
  0
ARC
  5
3E9
  8
0
 10
132.34479207999431
 20
110.5465176439197
 30
0.0
 40
18.428144684422151
 50
82.1891960358641
 51
95.084906388800334
  0
ARC
  5
3EA
  8
0
 10
134.00261522292359
 20
128.9923748988771
 30
0.0
 40
0.8673772020907611
 50
347.43572561100302
 51
62.73413538852715
  0
ARC
  5
3F1
  8
0
 10
130.6401345968354
 20
125.3914296602309
 30
0.0
 40
0.4355520821383481
 50
330.76955389287423
 51
63.867148578594801
  0
ARC
  5
3F3
  8
0
 10
113.03698482372469
 20
142.00273113524241
 30
0.0
 40
0.2947923289477581
 50
69.908251531627371
 51
181.91367615753171
  0
ARC
  5
3F4
  8
0
 10
111.2441116811044
 20
138.284203998571
 30
0.0
 40
4.4216319915490283
 50
35.841158152437913
 51
64.635165094831422
  0
ARC
  5
3F5
  8
0
 10
115.99309332300101
 20
141.27107462973731
 30
0.0
 40
1.230688608239398
 50
144.04886529077029
 51
198.85995383769881
  0
ARC
  5
3F6
  8
0
 10
114.2791737963047
 20
138.51761018872881
 30
0.0
 40
3.549306176934492
 50
28.30118036150964
 51
78.334604708832259
  0
ARC
  5
3F7
  8
0
 10
115.9183313365928
 20
141.46872319309691
 30
0.0
 40
1.9536176314118709
 50
288.59586497103868
 51
319.51576290461298
  0
ARC
  5
3FB
  8
0
 10
119.1304863062866
 20
140.8037902411464
 30
0.0
 40
2.8481575752676629
 50
204.62336164940669
 51
244.33553952679631
  0
ARC
  5
3FE
  8
0
 10
118.1532653403812
 20
135.73145834254009
 30
0.0
 40
3.6085825399987419
 50
42.461458878226907
 51
88.365705544800491
  0
ARC
  5
3FF
  8
0
 10
118.2645959776322
 20
138.87812211204931
 30
0.0
 40
0.460527754182465
 50
91.046876554188231
 51
214.07754313082319
  0
ARC
  5
400
  8
0
 10
117.6816710907421
 20
138.42085005232249
 30
0.0
 40
0.2833496966082409
 50
319.44309981830349
 51
44.678683096966651
  0
ARC
  5
401
  8
0
 10
120.31414117182391
 20
138.26352251480611
 30
0.0
 40
0.5103862212574862
 50
266.28707991659832
 51
349.16634036018797
  0
ARC
  5
402
  8
0
 10
121.9032113334686
 20
138.09962598074711
 30
0.0
 40
1.658490806281478
 50
192.0211489732616
 51
252.76984552168761
  0
LINE
  5
403
  8
0
 10
121.4119484993014
 20
136.51556392947319
 30
0.0
 11
121.40324432418051
 21
136.924336100755
 31
0.0
  0
ARC
  5
404
  8
0
 10
121.348687079002
 20
132.46842313529771
 30
0.0
 40
4.456246946560638
 50
53.398576879048179
 51
89.298517783596296
  0
LINE
  5
405
  8
0
 10
124.0057012164942
 20
136.04591006356151
 30
0.0
 11
123.90125477379679
 21
135.6806238103994
 31
0.0
  0
ARC
  5
406
  8
0
 10
126.8144359910562
 20
140.0525613088995
 30
0.0
 40
5.2536142126524297
 50
236.32303380992391
 51
275.62354263840541
  0
LINE
  5
407
  8
0
 10
127.329247246211
 20
134.8242315883339
 30
0.0
 11
127.9349630729059
 21
134.63272459372291
 31
0.0
  0
ARC
  5
408
  8
0
 10
128.31395609369301
 20
134.46326704318281
 30
0.0
 40
0.4151524674626008
 50
155.90935040260931
 51
267.09085669769678
  0
LINE
  5
409
  8
0
 10
128.2928861445609
 20
134.04864959482359
 30
0.0
 11
129.356173030093
 21
133.82221873312639
 31
0.0
  0
LINE
  5
40A
  8
0
 10
129.356173030093
 20
133.82221873312639
 30
0.0
 11
129.38232031361619
 21
133.98768725907669
 31
0.0
  0
ARC
  5
40B
  8
0
 10
129.965112507697
 20
131.93976262059451
 30
0.0
 40
2.1292350895060839
 50
48.017745286149029
 51
105.88513256675721
  0
LINE
  5
471
  8
0
 10
137.8947557554792
 20
149.33869241967079
 30
0.0
 11
140.6156843644132
 21
147.87713761633719
 31
0.0
  0
LINE
  5
472
  8
0
 10
134.41427955377779
 20
150.67018489400331
 30
0.0
 11
137.8947557554792
 21
149.33869241967079
 31
0.0
  0
ARC
  5
474
  8
0
 10
135.7965159990967
 20
131.33011338676249
 30
0.0
 40
19.687199914034512
 50
100.1536598072655
 51
128.931295177198
  0
ARC
  5
475
  8
0
 10
138.63098543306609
 20
143.09589648347659
 30
0.0
 40
5.1768037067912811
 50
32.800336437961583
 51
67.456603707014949
  0
LINE
  5
476
  8
0
 10
121.67554399866481
 20
144.12341725432989
 30
0.0
 11
123.4253149654007
 21
146.64478692030681
 31
0.0
  0
ARC
  5
49E
  8
0
 10
133.2582779151204
 20
144.67136053185669
 30
0.0
 40
6.1091925421010362
 50
79.092539021042498
 51
98.778859861841525
  0
LINE
  5
49F
  8
0
 10
142.98241727496239
 20
145.90023910590679
 30
0.0
 11
144.3970658547743
 21
143.9079945566784
 31
0.0
  0
LINE
  5
4A2
  8
0
 10
149.3854525260497
 20
130.1308816236909
 30
0.0
 11
147.89130684368379
 21
131.66267793275941
 31
0.0
  0
LINE
  5
4A3
  8
0
 10
147.89130684368379
 20
131.66267793275941
 30
0.0
 11
145.81079573367859
 21
134.3237197308718
 31
0.0
  0
ARC
  5
4A5
  8
0
 10
149.74698026187349
 20
147.55788697122301
 30
0.0
 40
12.991173937929061
 50
228.16960633781099
 51
250.16071597429041
  0
ARC
  5
4A6
  8
0
 10
140.78171491690779
 20
138.50189528456559
 30
0.0
 40
0.6928625852236853
 50
185.2650429149833
 51
295.75725826538132
  0
ARC
  5
4A7
  8
0
 10
139.3835366308783
 20
155.85938813738309
 30
0.0
 40
17.435462530883012
 50
252.04494750911951
 51
272.32802955747229
  0
ARC
  5
4A8
  8
0
 10
145.4944945635099
 20
138.19987133199899
 30
0.0
 40
11.53583012593845
 50
147.9296342459491
 51
174.66202162096209
  0
ARC
  5
4A9
  8
0
 10
130.57621924386299
 20
135.9890144823741
 30
0.0
 40
10.45746565372564
 50
19.855833144855911
 51
54.177827168525397
  0
ARC
  5
4AA
  8
0
 10
136.29026771526111
 20
143.8348358150518
 30
0.0
 40
0.7526407141562964
 50
57.317971740979907
 51
139.36942202452059
  0
ARC
  5
4AC
  8
0
 10
140.75360592742561
 20
138.90149761380451
 30
0.0
 40
0.7249749222283404
 50
9.8105975853880185
 51
118.1128248719625
  0
ARC
  5
4AF
  8
0
 10
146.82090266525219
 20
130.45715890185599
 30
0.0
 40
10.10258188114936
 50
98.127710699377985
 51
121.995792277896
  0
LINE
  5
4B1
  8
0
 10
144.3970658547743
 20
143.9079945566784
 30
0.0
 11
145.291255992944
 21
142.2590969749439
 31
0.0
  0
LINE
  5
4B2
  8
0
 10
144.60802577084999
 20
141.8828039194442
 30
0.0
 11
145.39259930152539
 21
140.45826434908
 31
0.0
  0
LINE
  5
4B3
  8
0
 10
145.291255992944
 20
142.2590969749439
 30
0.0
 11
146.07428034283799
 21
140.50123074038939
 31
0.0
  0
LINE
  5
4BC
  8
0
 10
148.4496695521901
 20
132.2073164236408
 30
0.0
 11
146.42527857250181
 21
134.80414749941951
 31
0.0
  0
LINE
  5
4BD
  8
0
 10
149.860901373481
 20
130.7605233025908
 30
0.0
 11
148.4496695521901
 21
132.2073164236408
 31
0.0
  0
ARC
  5
4C3
  8
0
 10
146.67643558418121
 20
138.24850639074469
 30
0.0
 40
2.3318143001018501
 50
79.060819336299829
 51
104.96533805743211
  0
ARC
  5
514
  8
0
 10
144.17435264261559
 20
139.97656645608839
 30
0.0
 40
2.9976201638037718
 50
331.23518516632208
 51
10.793875236829381
  0
ARC
  5
515
  8
0
 10
150.64938642810191
 20
141.36660305025211
 30
0.0
 40
4.7775607088655843
 50
216.36191020016159
 51
241.64804459814221
  0
ARC
  5
516
  8
0
 10
146.49310083531941
 20
129.48337573446759
 30
0.0
 40
7.7332975251658507
 50
76.899419450468841
 51
91.794074497684349
  0
LINE
  5
519
  8
0
 10
148.38058770489849
 20
137.1621246425911
 30
0.0
 11
148.2459391485678
 21
137.01540391154879
 31
0.0
  0
LINE
  5
51A
  8
0
 10
145.81063001847971
 20
135.50384044457371
 30
0.0
 11
146.42527857250181
 21
134.80414749941951
 31
0.0
  0
ARC
  5
51E
  8
0
 10
118.0502302139373
 20
124.5647849281289
 30
0.0
 40
19.022907379432532
 50
81.53367564190485
 51
104.1303183430927
  0
ARC
  5
51F
  8
0
 10
121.9071290230779
 20
143.0373188540508
 30
0.0
 40
1.1105140064946999
 50
102.036723590336
 51
162.00515866283871
  0
ARC
  5
521
  8
0
 10
123.7335617976936
 20
130.5050970457676
 30
0.0
 40
12.91154264381556
 50
77.795376698887765
 51
97.453147015708723
  0
LINE
  5
522
  8
0
 10
126.46310923651539
 20
143.12482383450151
 30
0.0
 11
129.6649299768041
 21
142.3777108182322
 31
0.0
  0
LINE
  5
523
  8
0
 10
129.6649299768041
 20
142.3777108182322
 30
0.0
 11
132.25101636286419
 21
141.4108587851795
 31
0.0
  0
LINE
  5
525
  8
0
 10
132.25101636286419
 20
141.4108587851795
 30
0.0
 11
133.95277386959719
 21
140.63509037424251
 31
0.0
  0
LINE
  5
528
  8
0
 10
133.79674691965801
 20
139.7178662004869
 30
0.0
 11
129.97541260557699
 21
141.1724396441825
 31
0.0
  0
ARC
  5
52A
  8
0
 10
122.04903810467459
 20
121.825301895991
 30
0.0
 40
20.678723267337581
 50
74.932502492978031
 51
88.004962420689495
  0
LINE
  5
52B
  8
0
 10
127.4246123736548
 20
141.7930958964761
 30
0.0
 11
129.97541260557699
 21
141.1724396441825
 31
0.0
  0
ARC
  5
52C
  8
0
 10
145.4944945635099
 20
138.19987133199899
 30
0.0
 40
11.795830125938449
 50
168.08575550941941
 51
172.6061524909544
  0
LINE
  5
52D
  8
0
 10
121.2911281502361
 20
142.53711360109861
 30
0.0
 11
122.7689252312632
 21
142.4914906711885
 31
0.0
  0
LINE
  5
530
  8
0
 10
145.81079573367859
 20
134.3237197308718
 30
0.0
 11
145.26287981638541
 21
134.83637455394819
 31
0.0
  0
ARC
  5
535
  8
0
 10
121.3540804477289
 20
142.99048856397641
 30
0.0
 40
9.5069697289234831
 50
189.52543999384659
 51
241.18752429074451
  0
LINE
  5
536
  8
0
 10
111.9624073543735
 20
141.9840159873944
 30
0.0
 11
111.9781907139364
 21
141.4172228119713
 31
0.0
  0
ARC
  5
537
  8
0
 10
113.0369754590395
 20
142.00279853986649
 30
0.0
 40
1.074732243790526
 50
69.906548227689512
 51
181.00138037216129
  0
ARC
  5
538
  8
0
 10
123.9328488999378
 20
132.7495951306185
 30
0.0
 40
7.4111817653898493
 50
165.05830048887961
 51
193.12213196805399
  0
ARC
  5
53A
  8
0
 10
123.213650449509
 20
132.94799012747589
 30
0.0
 40
5.990320829037354
 50
183.27082642977589
 51
203.79469454776199
  0
ARC
  5
53B
  8
0
 10
121.218120587664
 20
128.13583316324929
 30
0.0
 40
4.2292830036849738
 50
145.50318197571599
 51
194.111427136608
  0
ARC
  5
53C
  8
0
 10
116.4206646386498
 20
128.28525036355609
 30
0.0
 40
1.3703424727276721
 50
259.54148878202989
 51
300.51440901623562
  0
ARC
  5
53D
  8
0
 10
116.1025057896878
 20
121.21460141697111
 30
0.0
 40
5.7234933928593961
 50
89.305150040884982
 51
144.8134949260872
  0
ARC
  5
53E
  8
0
 10
115.8928788666399
 20
121.3052267192801
 30
0.0
 40
5.500145964904033
 50
144.32670580890471
 51
217.45349249832699
  0
ARC
  5
540
  8
0
 10
120.61784554296339
 20
130.61057757105249
 30
0.0
 40
3.9292653639378181
 50
149.4766805788378
 51
173.3287010992405
  0
ARC
  5
543
  8
0
 10
122.8703583217854
 20
128.2214761137536
 30
0.0
 40
4.4204711967596406
 50
197.20763307198999
 51
239.69653249136491
  0
ARC
  5
544
  8
0
 10
119.17914388516731
 20
126.9991240043431
 30
0.0
 40
1.779032521303203
 50
198.7125775507258
 51
240.86179128590601
  0
ARC
  5
545
  8
0
 10
120.1697254413191
 20
125.7942707159668
 30
0.0
 40
1.889345115210525
 50
143.66399207061309
 51
190.6460042073823
  0
ARC
  5
546
  8
0
 10
124.6296620993846
 20
125.286518552773
 30
0.0
 40
4.0860082161796569
 50
150.09015994903319
 51
192.4590486125945
  0
ARC
  5
547
  8
0
 10
123.3319078237178
 20
126.90799374361229
 30
0.0
 40
2.282268740374819
 50
169.49878289564319
 51
229.29737413249609
  0
ARC
  5
548
  8
0
 10
124.8464372260421
 20
125.786036622217
 30
0.0
 40
3.063853836907632
 50
172.96887210927
 51
191.45051571699159
  0
ARC
  5
54E
  8
0
 10
121.91642194294219
 20
138.11947128370829
 30
0.0
 40
1.94137032610581
 50
168.26356649208529
 51
262.97187508216319
  0
ARC
  5
551
  8
0
 10
126.92515738234739
 20
130.7808813347811
 30
0.0
 40
6.2805398043773826
 50
222.098117278247
 51
261.9986752551664
  0
ARC
  5
552
  8
0
 10
128.5996770868266
 20
138.75329951998921
 30
0.0
 40
14.418867706767729
 50
259.81863539422449
 51
278.46215299261399
  0
ARC
  5
553
  8
0
 10
129.5585068242259
 20
132.4123885150326
 30
0.0
 40
8.0074593757889847
 50
281.65540460461477
 51
303.52303702927372
  0
ARC
  5
557
  8
0
 10
129.44552606726731
 20
132.76300427376691
 30
0.0
 40
8.8937651752120246
 50
284.74660163200019
 51
296.32964449068447
  0
LINE
  5
55A
  8
0
 10
131.02022465841071
 20
125.17873936579601
 30
0.0
 11
131.17621435851311
 21
124.57004014299361
 31
0.0
  0
ARC
  5
55F
  8
0
 10
135.78752544402249
 20
128.6669664287563
 30
0.0
 40
1.7056902681465329
 50
181.19488634717629
 51
222.13303647245789
  0
LINE
  5
561
  8
0
 10
134.0822060806033
 20
128.63139734671509
 30
0.0
 11
135.0163204526348
 21
128.49903823588721
 31
0.0
  0
ARC
  5
56D
  8
0
 10
124.9457783321803
 20
132.8086349557845
 30
0.0
 40
8.3425580234446901
 50
133.1232428289012
 51
161.79287583132299
  0
LINE
  5
57D
  8
0
 10
122.07389388267811
 20
126.994173284257
 30
0.0
 11
122.0591444395196
 21
126.8381435324695
 31
0.0
  0
LINE
  5
57E
  8
0
 10
122.0591444395196
 20
126.8381435324695
 30
0.0
 11
122.1506402426383
 21
126.71732939542861
 31
0.0
  0
LINE
  5
57F
  8
0
 10
122.1506402426383
 20
126.71732939542861
 30
0.0
 11
122.2650102213546
 21
126.5703933972303
 31
0.0
  0
ARC
  5
583
  8
0
 10
118.1532653403812
 20
135.73145834254009
 30
0.0
 40
3.3485825399987421
 50
56.208823991785081
 51
71.007248329230194
  0
ARC
  5
584
  8
0
 10
121.348687079002
 20
132.46842313529771
 30
0.0
 40
4.1962469465606382
 50
55.835913933167546
 51
85.620894183268248
  0
ARC
  5
585
  8
0
 10
126.8144359910562
 20
140.0525613088995
 30
0.0
 40
5.5136142126524312
 50
234.33855520281631
 51
275.06329310056208
  0
LINE
  5
586
  8
0
 10
128.18462872528619
 20
133.8006168442831
 30
0.0
 11
129.57038387751911
 21
133.51203416586981
 31
0.0
  0
LINE
  5
588
  8
0
 10
121.67888258264701
 20
136.19268800700209
 30
0.0
 11
121.66909330019639
 21
136.6524198238647
 31
0.0
  0
LINE
  5
589
  8
0
 10
123.7051518233618
 20
135.94053522235779
 30
0.0
 11
123.6000285909101
 21
135.572881995394
 31
0.0
  0
LINE
  5
58A
  8
0
 10
127.301046402184
 20
134.5604622571939
 30
0.0
 11
127.6388720789559
 21
134.4536531278799
 31
0.0
  0
ARC
  5
58B
  8
0
 10
128.31395609369301
 20
134.46326704318281
 30
0.0
 40
0.6751524674626009
 50
180.81589776374059
 51
258.95658031096838
  0
LINE
  5
58C
  8
0
 10
129.57038387751911
 20
133.51203416586981
 30
0.0
 11
129.61199142441581
 21
133.77534027364629
 31
0.0
  0
ARC
  5
5AE
  8
0
 10
125.6421893831735
 20
130.54193569193009
 30
0.0
 40
2.3325679663640129
 50
139.3874283597944
 51
150.64800455780659
  0
ARC
  5
5B0
  8
0
 10
124.57863535113511
 20
129.4192010010475
 30
0.0
 40
0.7944193959161866
 50
216.3211096998923
 51
241.34638138769489
  0
ARC
  5
5B1
  8
0
 10
123.1867347494985
 20
130.44321557034431
 30
0.0
 40
2.521573053858809
 50
324.66610553945861
 51
15.64559679800549
  0
ARC
  5
5B8
  8
0
 10
125.27872304535251
 20
129.5582435575125
 30
0.0
 40
1.366672870407122
 50
144.60400857635699
 51
217.7220275638912
  0
ARC
  5
5B9
  8
0
 10
124.55134349182281
 20
130.09354357065351
 30
0.0
 40
0.4639213903036546
 50
20.863839800911229
 51
146.46229380373779
  0
ARC
  5
5BA
  8
0
 10
123.16311587433439
 20
129.5779718212946
 30
0.0
 40
1.944783293463721
 50
332.82308047268651
 51
20.491165615918892
  0
ARC
  5
5BB
  8
0
 10
124.57863535113511
 20
129.4192010010475
 30
0.0
 40
0.7944193959161866
 50
293.32603942179531
 51
326.85876646435008
  0
ARC
  5
5BC
  8
0
 10
123.46813011025451
 20
131.29114870639751
 30
0.0
 40
0.4185895446783285
 50
251.6459583448158
 51
70.324622669313001
  0
ARC
  5
5CF
  8
0
 10
122.5112948415919
 20
128.5881456102708
 30
0.0
 40
3.565149021565452
 50
78.935764526500918
 51
102.1373719996578
  0
ARC
  5
5D1
  8
0
 10
122.9525284764959
 20
128.48456727262959
 30
0.0
 40
4.5598906577732183
 50
48.248140013799002
 51
109.9805590263323
  0
LINE
  5
5D2
  8
0
 10
125.98898649965849
 20
131.88640875694651
 30
0.0
 11
125.5423137327418
 21
131.4226913593894
 31
0.0
  0
ARC
  5
5D3
  8
0
 10
125.6421893831735
 20
130.54193569193009
 30
0.0
 40
2.3325679663640129
 50
171.32257645632151
 51
223.0830063174437
  0
ARC
  5
5D4
  8
0
 10
123.5843672986298
 20
128.79993405472581
 30
0.0
 40
3.2729818389380809
 50
53.257845544834957
 51
84.967593593169084
  0
LINE
  5
5D5
  8
0
 10
126.0520039698624
 20
131.57705425854729
 30
0.0
 11
125.61487911299029
 21
131.123249110686
 31
0.0
  0
ARC
  5
5DA
  8
0
 10
122.9525284764959
 20
128.48456727262959
 30
0.0
 40
4.819890657773219
 50
46.072750598357189
 51
110.95305348514481
  0
ARC
  5
5DB
  8
0
 10
129.4215873036475
 20
132.2434099316059
 30
0.0
 40
3.1384782953743171
 50
185.25511709832301
 51
229.035962858018
  0
ARC
  5
5DE
  8
0
 10
124.9583356633955
 20
130.83738671201681
 30
0.0
 40
3.427346620248672
 50
158.8573509251695
 51
178.2341673770789
  0
LINE
  5
5DF
  8
0
 10
121.3944080135677
 20
132.7699918063079
 30
0.0
 11
121.2289216942312
 21
132.98573663325371
 31
0.0
  0
ARC
  5
5F3
  8
0
 10
118.6752903861972
 20
121.13585957086811
 30
0.0
 40
5.7992716922932743
 50
182.03130216800091
 51
226.43884637029851
  0
ARC
  5
5F4
  8
0
 10
119.3397267458932
 20
116.1939296332707
 30
0.0
 40
8.0103460721485291
 50
143.75197765705289
 51
167.25952918329301
  0
ARC
  5
5F6
  8
0
 10
116.2535641328225
 20
118.1736376637693
 30
0.0
 40
0.8732484185820576
 50
54.718820258437027
 51
159.45646261701961
  0
ARC
  5
5F7
  8
0
 10
121.4720912212783
 20
124.95799730690641
 30
0.0
 40
8.8543586304901112
 50
227.02137347563769
 51
245.32528767925041
  0
ARC
  5
5FD
  8
0
 10
121.4720912212783
 20
124.95799730690641
 30
0.0
 40
9.6343586304901105
 50
227.02137347563769
 51
241.39405183312661
  0
ARC
  5
5FE
  8
0
 10
115.59716171801961
 20
117.23549218608061
 30
0.0
 40
0.966701838497307
 50
135.8016624752668
 51
198.2048536713647
  0
LINE
  5
677
  8
0
 10
127.40648255306471
 20
110.0980882447583
 30
0.0
 11
127.99575544945741
 21
109.6634033142017
 31
0.0
  0
ARC
  5
6D9
  8
0
 10
129.83701519310449
 20
120.5676278130331
 30
0.0
 40
12.274792747186551
 50
300.23519500387818
 51
329.37464929040641
  0
ARC
  5
6DB
  8
0
 10
135.67502181297971
 20
106.8266083438061
 30
0.0
 40
3.154719330307461
 50
37.875393817785003
 51
83.758586653654973
  0
ARC
  5
6DC
  8
0
 10
140.7328829415394
 20
117.9877342939495
 30
0.0
 40
4.8800898435862088
 50
262.74695451426561
 51
312.38563538225378
  0
ARC
  5
6DD
  8
0
 10
140.10091716745239
 20
118.1631884937032
 30
0.0
 40
6.570895285940817
 50
306.70610697658009
 51
349.63827892868892
  0
LINE
  5
6DF
  8
0
 10
144.022635580984
 20
114.3831809994703
 30
0.0
 11
144.028410946593
 21
112.89522328181999
 31
0.0
  0
ARC
  5
6E0
  8
0
 10
140.93090555764829
 20
115.0146165602732
 30
0.0
 40
5.9671678692769579
 50
344.89889680836762
 51
19.243879750161689
  0
ARC
  5
6E4
  8
0
 10
138.3869386879696
 20
115.9131640272473
 30
0.0
 40
3.262767382870817
 50
302.01700891218428
 51
350.26641679619769
  0
ARC
  5
6EA
  8
0
 10
151.3595451392338
 20
129.9355894165484
 30
0.0
 40
8.4340120473643303
 50
210.41106602222831
 51
238.87365474539919
  0
ARC
  5
6EC
  8
0
 10
143.97961568860239
 20
117.78401626191889
 30
0.0
 40
6.5629930072856544
 50
333.31318789336029
 51
58.4033020266072
  0
ARC
  5
6ED
  8
0
 10
151.37356053274391
 20
129.95193749634771
 30
0.0
 40
7.6754706400065036
 50
210.75215547647721
 51
238.98091266345821
  0
ARC
  5
6F0
  8
0
 10
143.40891864446479
 20
115.7425411194891
 30
0.0
 40
6.498043448801309
 50
351.98486440110941
 51
10.529488260629069
  0
ARC
  5
6F1
  8
0
 10
144.95079902053141
 20
118.1430364036484
 30
0.0
 40
4.9962346481831768
 50
290.3959150672672
 51
345.94876905459728
  0
LINE
  5
6F2
  8
0
 10
152.06254745988389
 20
129.57005903846959
 30
0.0
 11
149.860901373481
 21
130.7605233025908
 31
0.0
  0
LINE
  5
6F3
  8
0
 10
131.38935873665079
 20
133.522533844017
 30
0.0
 11
131.09309595421911
 21
133.18263721234999
 31
0.0
  0
LINE
  5
6FB
  8
0
 10
134.15950622575971
 20
132.14734278710549
 30
0.0
 11
134.15250652717859
 21
131.95849647984909
 31
0.0
  0
LINE
  5
6FC
  8
0
 10
135.11845110764179
 20
131.7067013213381
 30
0.0
 11
135.4404323464687
 21
132.01445093212851
 31
0.0
  0
LINE
  5
702
  8
0
 10
142.54757147682821
 20
130.26376031316349
 30
0.0
 11
142.47757535500031
 21
129.95601082562669
 31
0.0
  0
LINE
  5
703
  8
0
 10
142.47757535500031
 20
129.95601082562669
 30
0.0
 11
142.72453001166321
 21
129.90499464362321
 31
0.0
  0
ARC
  5
710
  8
0
 10
135.94777843559191
 20
127.85953562724779
 30
0.0
 40
4.1857760624381637
 50
74.444602457876655
 51
96.961777153295159
  0
ARC
  5
711
  8
0
 10
136.99161734126849
 20
131.42495342709589
 30
0.0
 40
0.4736178703365445
 50
329.92642989247179
 51
80.439772514236736
  0
ARC
  5
712
  8
0
 10
134.9099464936933
 20
132.88552051348589
 30
0.0
 40
1.1971168956346461
 50
230.7489043256825
 51
280.03049521929489
  0
ARC
  5
713
  8
0
 10
132.93000497269961
 20
129.85468102093569
 30
0.0
 40
2.6015324916927831
 50
61.796374268573558
 51
97.474240356313913
  0
ARC
  5
714
  8
0
 10
134.9439503000188
 20
137.18973986988439
 30
0.0
 40
5.5575130139823337
 50
226.13912423305061
 51
245.8315800583504
  0
ARC
  5
716
  8
0
 10
155.84711211524609
 20
132.00949189923989
 30
0.0
 40
12.58277993125926
 50
190.96510784029061
 51
208.3872814311446
  0
ARC
  5
718
  8
0
 10
147.38251610736731
 20
137.78020613932179
 30
0.0
 40
9.4503549604323016
 50
250.6124936849593
 51
299.6844438470842
  0
LINE
  5
719
  8
0
 10
143.49405346975209
 20
129.6161066608199
 30
0.0
 11
143.84530427289309
 21
129.5887565265071
 31
0.0
  0
ARC
  5
71A
  8
0
 10
143.7664424908921
 20
129.25517531208661
 30
0.0
 40
0.3427763225117389
 50
337.00795342049048
 51
76.698938683733161
  0
ARC
  5
71B
  8
0
 10
144.38848432388619
 20
129.13726080472449
 30
0.0
 40
0.3069120168132073
 50
182.98364978004031
 51
242.2157483177144
  0
ARC
  5
723
  8
0
 10
155.6607850746918
 20
192.31503054807891
 30
0.0
 40
62.463757551829701
 50
243.0836287451495
 51
257.51117907466028
  0
ARC
  5
724
  8
0
 10
152.79388787727061
 20
173.12425521439681
 30
0.0
 40
43.128269200762659
 50
255.71618284776321
 51
265.46717673018588
  0
ARC
  5
726
  8
0
 10
107.36300619733569
 20
110.3669661529804
 30
0.0
 40
33.014621635570009
 50
52.66811114718351
 51
75.806389499454426
  0
ARC
  5
727
  8
0
 10
138.99107768377971
 20
133.51860666239031
 30
0.0
 40
2.821406580079052
 50
235.7082705331666
 51
282.56008997185143
  0
ARC
  5
728
  8
0
 10
139.7642541133506
 20
130.1859074932816
 30
0.0
 40
0.6004201910946384
 50
26.576169797738292
 51
105.4176686534956
  0
ARC
  5
729
  8
0
 10
141.60003189538509
 20
132.42722300248369
 30
0.0
 40
2.3618641083860972
 50
236.6395950344905
 51
293.65215047690191
  0
LINE
  5
72A
  8
0
 10
145.26287981638541
 20
134.83637455394819
 30
0.0
 11
145.81063001847971
 21
135.50384044457371
 31
0.0
  0
ARC
  5
72B
  8
0
 10
141.78011183058621
 20
138.22991958939281
 30
0.0
 40
4.5850986194092087
 50
320.89279411246952
 51
347.18442403562818
  0
ARC
  5
738
  8
0
 10
134.9439503000188
 20
137.18973986988439
 30
0.0
 40
5.8175130139823343
 50
223.6966761476954
 51
250.1937957964289
  0
LINE
  5
739
  8
0
 10
131.0136633329835
 20
133.48720599165259
 30
0.0
 11
130.7378463635753
 21
133.1707664507525
 31
0.0
  0
ARC
  5
73A
  8
0
 10
129.9651125076968
 20
131.939762620594
 30
0.0
 40
1.8692350895065799
 50
55.878351982073738
 51
73.366219971807425
  0
ARC
  5
73B
  8
0
 10
129.96511250769689
 20
131.93976262059439
 30
0.0
 40
1.8692350895061081
 50
85.829340821248167
 51
100.8893010727959
  0
LINE
  5
73D
  8
0
 10
132.5915964951464
 20
132.43410944747771
 30
0.0
 11
132.66859202756109
 21
132.1193655609658
 31
0.0
  0
LINE
  5
73E
  8
0
 10
132.8936330661532
 20
132.1959310063211
 30
0.0
 11
132.9727453516229
 21
131.7163671693209
 31
0.0
  0
ARC
  5
73F
  8
0
 10
132.93000497269961
 20
129.85468102093569
 30
0.0
 40
2.3415324916927829
 50
65.703417960291901
 51
90.890032728267968
  0
LINE
  5
740
  8
0
 10
133.8934519046156
 20
131.98881888411009
 30
0.0
 11
133.88818343867629
 21
131.84667985826181
 31
0.0
  0
ARC
  5
741
  8
0
 10
134.92654467675001
 20
132.91326916860399
 30
0.0
 40
1.4885586376324149
 50
225.7683090053838
 51
282.5604170256326
  0
ARC
  5
744
  8
0
 10
135.4388958129299
 20
130.42533795716761
 30
0.0
 40
3.1190102273605831
 50
163.51796402463859
 51
189.48902692915689
  0
ARC
  5
746
  8
0
 10
135.17487810412311
 20
133.5441887179887
 30
0.0
 40
3.5250657835585768
 50
219.32589096868949
 51
260.74390306070927
  0
ARC
  5
747
  8
0
 10
133.76238995067729
 20
129.00824411495171
 30
0.0
 40
1.353378118270453
 50
337.89852897948458
 51
51.337958001874568
  0
LINE
  5
748
  8
0
 10
135.25025999663069
 20
131.4603358565264
 30
0.0
 11
135.5589912678212
 21
131.76601258616989
 31
0.0
  0
ARC
  5
749
  8
0
 10
135.94805586466819
 20
127.81701564591719
 30
0.0
 40
3.968116441669101
 50
74.221002517511067
 51
95.626758056947182
  0
ARC
  5
750
  8
0
 10
136.99161734126849
 20
131.42495342709589
 30
0.0
 40
0.2136178703365445
 50
329.92642989247179
 51
80.439772514236736
  0
ARC
  5
751
  8
0
 10
132.8735780453859
 20
131.9782003595418
 30
0.0
 40
4.3532677356047476
 50
323.48001652950791
 51
351.27583990301389
  0
ARC
  5
752
  8
0
 10
134.6039608757807
 20
128.26777326645001
 30
0.0
 40
2.0928824823612948
 50
312.4951130353848
 51
32.346884961463097
  0
ARC
  5
753
  8
0
 10
134.17837870396531
 20
125.6564171972566
 30
0.0
 40
2.1270582533974638
 50
342.04079642740368
 51
30.145408615127781
  0
ARC
  5
754
  8
0
 10
135.11673568976471
 20
125.5075291743746
 30
0.0
 40
1.19765567238981
 50
289.18633187642871
 51
334.95684585974459
  0
LINE
  5
755
  8
0
 10
135.8399263325191
 20
121.4322333248098
 30
0.0
 11
137.93073820894961
 21
124.5617825967358
 31
0.0
  0
LINE
  5
756
  8
0
 10
137.93073820894961
 20
124.5617825967358
 30
0.0
 11
137.7725149815567
 21
125.4221864628016
 31
0.0
  0
LINE
  5
75B
  8
0
 10
138.35360245664339
 20
125.9920299705191
 30
0.0
 11
138.52012406289001
 21
127.024588525152
 31
0.0
  0
ARC
  5
75D
  8
0
 10
143.01668311700769
 20
126.2781268656109
 30
0.0
 40
4.5580970082187013
 50
149.1969268814351
 51
170.57443919992619
  0
LINE
  5
75E
  8
0
 10
139.1015857696089
 20
128.61227790972171
 30
0.0
 11
139.22421161449591
 21
128.67744786712831
 31
0.0
  0
LINE
  5
75F
  8
0
 10
139.22421161449591
 20
128.67744786712831
 30
0.0
 11
139.31952226900501
 21
128.6040323451781
 31
0.0
  0
LINE
  5
775
  8
0
 10
140.20055493869151
 20
124.3248052597404
 30
0.0
 11
139.39384611070579
 21
123.7181080375784
 31
0.0
  0
LINE
  5
779
  8
0
 10
140.31453970460129
 20
128.40655472200041
 30
0.0
 11
140.51226174518641
 21
128.4162163186397
 31
0.0
  0
LINE
  5
77A
  8
0
 10
140.51226174518641
 20
128.4162163186397
 30
0.0
 11
140.59519341984921
 21
128.3090420373297
 31
0.0
  0
ARC
  5
77D
  8
0
 10
148.94168301615309
 20
124.5814310352613
 30
0.0
 40
9.1410596958970061
 50
155.93406771657371
 51
170.26076799739539
  0
LINE
  5
795
  8
0
 10
139.31952226900501
 20
128.6040323451781
 30
0.0
 11
139.24367704493079
 21
126.4678685378319
 31
0.0
  0
ARC
  5
796
  8
0
 10
144.03691176225229
 20
125.08534947857321
 30
0.0
 40
4.98863287931177
 50
138.25975835671821
 51
163.91078158143151
  0
ARC
  5
797
  8
0
 10
146.32012056440399
 20
121.6136278557485
 30
0.0
 40
7.8218227211825946
 50
129.76707466219341
 51
144.75164517232571
  0
LINE
  5
79D
  8
0
 10
140.90385668995711
 20
126.5959727945088
 30
0.0
 11
140.22086335421409
 21
125.5302631531957
 31
0.0
  0
LINE
  5
79E
  8
0
 10
141.31675012158931
 20
127.6258815840585
 30
0.0
 11
141.48526024907471
 21
127.5454389665385
 31
0.0
  0
LINE
  5
79F
  8
0
 10
141.48526024907471
 20
127.5454389665385
 30
0.0
 11
141.50994100723429
 21
127.4047299692657
 31
0.0
  0
LINE
  5
7A0
  8
0
 10
141.50994100723429
 20
127.4047299692657
 30
0.0
 11
140.90385668995711
 21
126.5959727945088
 31
0.0
  0
LINE
  5
7B4
  8
0
 10
140.35978615495861
 20
124.9224253820896
 30
0.0
 11
140.20055493869151
 21
124.3248052597404
 31
0.0
  0
ARC
  5
7B5
  8
0
 10
134.60290506102149
 20
125.9449199111084
 30
0.0
 40
3.212425455373813
 50
350.63505285144703
 51
13.779812929182739
  0
ARC
  5
7B6
  8
0
 10
137.22287638813111
 20
125.9842717167781
 30
0.0
 40
1.1307526840623481
 50
0.3931175134059057
 51
56.151624761669368
  0
LINE
  5
7B7
  8
0
 10
137.85270226723819
 20
126.9233782040953
 30
0.0
 11
137.7478174171257
 21
126.85710497012241
 31
0.0
  0
LINE
  5
7B8
  8
0
 10
137.7478174171257
 20
126.85710497012241
 30
0.0
 11
137.7228713296459
 21
126.7100916493341
 31
0.0
  0
ARC
  5
7B9
  8
0
 10
142.09676362148099
 20
123.6404437273669
 30
0.0
 40
2.6627841209854219
 50
105.01146258278671
 51
134.78821965706271
  0
LINE
  5
7BA
  8
0
 10
141.40706982754281
 20
126.2123577511195
 30
0.0
 11
141.5361846140691
 21
126.1608756579563
 31
0.0
  0
LINE
  5
7BB
  8
0
 10
141.5361846140691
 20
126.1608756579563
 30
0.0
 11
141.45897331090771
 21
125.9673607740298
 31
0.0
  0
LINE
  5
7BC
  8
0
 10
141.45897331090771
 20
125.9673607740298
 30
0.0
 11
140.35978615495861
 21
124.9224253820896
 31
0.0
  0
LINE
  5
7BD
  8
0
 10
139.39384611070579
 20
123.7181080375784
 30
0.0
 11
136.87121422355531
 21
118.8805471804063
 31
0.0
  0
LINE
  5
7CB
  8
0
 10
128.30245220720801
 20
123.1588495137209
 30
0.0
 11
127.60195589574001
 21
122.92086073773621
 31
0.0
  0
LINE
  5
7CC
  8
0
 10
127.60195589574001
 20
122.92086073773621
 30
0.0
 11
127.29373732285799
 21
122.41688426698209
 31
0.0
  0
LINE
  5
7CD
  8
0
 10
127.29373732285799
 20
122.41688426698209
 30
0.0
 11
126.6212605412952
 21
122.48688100930239
 31
0.0
  0
LINE
  5
7CE
  8
0
 10
126.6212605412952
 20
122.48688100930239
 30
0.0
 11
125.5144761503001
 21
121.9829045385483
 31
0.0
  0
LINE
  5
7CF
  8
0
 10
125.5144761503001
 20
121.9829045385483
 30
0.0
 11
125.71061516359021
 21
121.1709426727427
 31
0.0
  0
LINE
  5
7D0
  8
0
 10
125.71061516359021
 20
121.1709426727427
 30
0.0
 11
125.3743767728088
 21
120.9469530480163
 31
0.0
  0
LINE
  5
7D1
  8
0
 10
125.3743767728088
 20
120.9469530480163
 30
0.0
 11
125.5985356039983
 21
120.526972717348
 31
0.0
  0
LINE
  5
7D2
  8
0
 10
125.5985356039983
 20
120.526972717348
 30
0.0
 11
124.85600942168411
 21
119.7990068683747
 31
0.0
  0
LINE
  5
7D3
  8
0
 10
124.85600942168411
 20
119.7990068683747
 30
0.0
 11
123.9867119039334
 21
118.4743297812457
 31
0.0
  0
ARC
  5
7D4
  8
0
 10
122.7663703838267
 20
115.14657690106711
 30
0.0
 40
3.544456609585366
 50
69.861185350492633
 51
109.50318162072919
  0
ARC
  5
7D5
  8
0
 10
120.4610002988511
 20
117.29415919348099
 30
0.0
 40
1.6381030977856259
 50
46.76823334045276
 51
102.4879183340103
  0
ARC
  5
7D8
  8
0
 10
116.95375842313339
 20
123.3381215171224
 30
0.0
 40
0.3941468376602749
 50
28.469291050445399
 51
194.0592114472731
  0
LINE
  5
7D9
  8
0
 10
116.57141817607049
 20
123.2423735922703
 30
0.0
 11
119.3300514065312
 21
118.7520348728669
 31
0.0
  0
ARC
  5
7DB
  8
0
 10
136.2641962814844
 20
119.3886537345427
 30
0.0
 40
0.7916078905319468
 50
230.515158233248
 51
320.06886209052112
  0
LINE
  5
7DC
  8
0
 10
135.76083336122181
 20
118.7776964341876
 30
0.0
 11
133.90592130108249
 21
120.1387282333302
 31
0.0
  0
LINE
  5
7DE
  8
0
 10
131.94797557859181
 20
120.0083798409819
 30
0.0
 11
131.05413667733589
 21
118.6571834377901
 31
0.0
  0
LINE
  5
7DF
  8
0
 10
131.05413667733589
 20
118.6571834377901
 30
0.0
 11
131.83338096581301
 21
117.7182165585501
 31
0.0
  0
LINE
  5
7E0
  8
0
 10
131.83338096581301
 20
117.7182165585501
 30
0.0
 11
131.2604070379366
 21
116.847954476715
 31
0.0
  0
ARC
  5
809
  8
0
 10
130.6391431697742
 20
115.8848336216186
 30
0.0
 40
1.1461110659118341
 50
355.75375153907152
 51
57.175844877997719
  0
ARC
  5
815
  8
0
 10
134.76534345516839
 20
120.44107677550829
 30
0.0
 40
1.8506540219201619
 50
125.9111390458892
 51
134.06097048839379
  0
ARC
  5
816
  8
0
 10
136.17640911074139
 20
121.8932601857647
 30
0.0
 40
0.5707595172768994
 50
139.7490799305472
 51
233.87597444070531
  0
LINE
  5
817
  8
0
 10
135.7407928367553
 20
122.26204859176551
 30
0.0
 11
135.75058342441611
 21
122.6045773199168
 31
0.0
  0
LINE
  5
819
  8
0
 10
134.97267454877391
 20
122.6587286823891
 30
0.0
 11
135.63633584850501
 21
123.24126806608059
 31
0.0
  0
LINE
  5
81A
  8
0
 10
135.63633584850501
 20
123.24126806608059
 30
0.0
 11
135.51033487018759
 21
124.37639753094059
 31
0.0
  0
ARC
  5
84D
  8
0
 10
133.38115744645671
 20
121.113029439125
 30
0.0
 40
1.5784033830160209
 50
115.32965515260661
 51
261.27605942762187
  0
LINE
  5
84F
  8
0
 10
133.37886930766149
 20
123.56564325385619
 30
0.0
 11
133.23113393637021
 21
123.5620834700955
 31
0.0
  0
LINE
  5
850
  8
0
 10
133.23113393637021
 20
123.5620834700955
 30
0.0
 11
132.7093515757318
 21
124.0475138510174
 31
0.0
  0
ARC
  5
851
  8
0
 10
133.9747272819564
 20
121.96805991349289
 30
0.0
 40
2.4341948065407149
 50
121.3210754113144
 51
155.72547071721371
  0
LINE
  5
852
  8
0
 10
131.75574907220951
 20
122.9687796848865
 30
0.0
 11
132.04362897545741
 21
122.7650187964265
 31
0.0
  0
LINE
  5
856
  8
0
 10
132.04362897545741
 20
122.7650187964265
 30
0.0
 11
132.70373908953849
 21
122.63874656102421
 31
0.0
  0
LINE
  5
857
  8
0
 10
132.70373908953849
 20
122.63874656102421
 30
0.0
 11
132.70587584917661
 21
122.5396870728589
 31
0.0
  0
LINE
  5
858
  8
0
 10
133.67987966944861
 20
121.9399725953504
 30
0.0
 11
134.40889948982621
 21
121.2989200056594
 31
0.0
  0
LINE
  5
859
  8
0
 10
134.40889948982621
 20
121.2989200056594
 30
0.0
 11
135.31288389428741
 21
122.4644702471729
 31
0.0
  0
LINE
  5
85A
  8
0
 10
135.31288389428741
 20
122.4644702471729
 30
0.0
 11
134.97267454877391
 21
122.6587286823891
 31
0.0
  0
LINE
  5
865
  8
0
 10
134.44487379782029
 20
120.92106357442
 30
0.0
 11
135.75058342441611
 21
122.6045773199168
 31
0.0
  0
LINE
  5
866
  8
0
 10
133.47835524638759
 20
121.7709570931716
 30
0.0
 11
134.44487379782029
 21
120.92106357442
 31
0.0
  0
LINE
  5
867
  8
0
 10
133.90592130108249
 20
120.1387282333302
 30
0.0
 11
133.00619744715081
 21
119.86633715504949
 31
0.0
  0
ARC
  5
868
  8
0
 10
134.76534345516839
 20
120.44107677550829
 30
0.0
 40
1.8506540219201619
 50
198.09299844914071
 51
208.68101206289009
  0
LINE
  5
87E
  8
0
 10
128.30245220720801
 20
123.1588495137209
 30
0.0
 11
128.62888894909091
 21
123.5493459440202
 31
0.0
  0
ARC
  5
87F
  8
0
 10
133.9747272819564
 20
121.96805991349289
 30
0.0
 40
2.6941948065407151
 50
140.03455778496851
 51
155.72547071721371
  0
LINE
  5
880
  8
0
 10
131.71715462254309
 20
123.8740259441913
 30
0.0
 11
131.90981016998589
 21
123.6986098192404
 31
0.0
  0
LINE
  5
881
  8
0
 10
133.37886930766149
 20
123.56564325385619
 30
0.0
 11
133.38598118335139
 21
124.4285276883024
 31
0.0
  0
LINE
  5
882
  8
0
 10
133.38598118335139
 20
124.4285276883024
 30
0.0
 11
133.5479567886224
 21
124.59317149277079
 31
0.0
  0
LINE
  5
884
  8
0
 10
133.3902219211684
 20
124.7919043740022
 30
0.0
 11
133.5479567886224
 21
124.59317149277079
 31
0.0
  0
ARC
  5
885
  8
0
 10
133.28898431280041
 20
121.7597198719975
 30
0.0
 40
2.2057870090879752
 50
143.37401095918301
 51
232.55856115406439
  0
LINE
  5
886
  8
0
 10
131.78210820131571
 20
115.79997189833431
 30
0.0
 11
132.0643260803387
 21
115.47429149760021
 31
0.0
  0
LINE
  5
8BA
  8
0
 10
132.0643260803387
 20
115.47429149760021
 30
0.0
 11
132.09086836698651
 21
115.2149529935708
 31
0.0
  0
ARC
  5
8BB
  8
0
 10
131.50275954355089
 20
113.1629871966307
 30
0.0
 40
2.1345809003208709
 50
39.878630705900228
 51
74.007299371655336
  0
ARC
  5
8BC
  8
0
 10
135.54008668208459
 20
106.34967961520169
 30
0.0
 40
8.5264422045520192
 50
72.796591731063728
 51
106.34307622569349
  0
ARC
  5
8BD
  8
0
 10
135.42623232958681
 20
118.189964194916
 30
0.0
 40
4.5389533806656841
 50
312.10947272183392
 51
359.1873499992023
  0
LINE
  5
8E8
  8
0
 10
118.47110763285259
 20
116.9059825230952
 30
0.0
 11
118.09761720732131
 21
116.7718753992835
 31
0.0
  0
ARC
  5
8EE
  8
0
 10
138.92759138918731
 20
110.4684736401255
 30
0.0
 40
4.1181968884810427
 50
69.055749841980855
 51
102.1346082360363
  0
ARC
  5
8EF
  8
0
 10
138.92759138918731
 20
110.4684736401255
 30
0.0
 40
4.3781968884810434
 50
65.62475252715997
 51
96.001591441596744
  0
LINE
  5
906
  8
0
 10
117.7756970093905
 20
116.91210788511739
 30
0.0
 11
116.85932406180289
 21
116.4996732794548
 31
0.0
  0
ARC
  5
94A
  8
0
 10
119.43438403849829
 20
116.8594520826407
 30
0.0
 40
1.8954563872465271
 50
93.155357322649436
 51
137.141210422124
  0
ARC
  5
94B
  8
0
 10
118.63960594116369
 20
117.9316360651577
 30
0.0
 40
0.6330414793137905
 50
159.94405142212281
 51
216.32825146622099
  0
LINE
  5
94C
  8
0
 10
118.1296047626235
 20
117.5566156491542
 30
0.0
 11
119.04040350124841
 21
117.17081087559291
 31
0.0
  0
LINE
  5
94D
  8
0
 10
119.04040350124841
 20
117.17081087559291
 30
0.0
 11
118.47110763285259
 21
116.9059825230952
 31
0.0
  0
ARC
  5
94E
  8
0
 10
118.0401746832809
 20
98.693766992884093
 30
0.0
 40
14.757583349841671
 50
50.603921793811431
 51
73.643729532509695
  0
ARC
  5
9A6
  8
0
 10
138.97730921104551
 20
117.0109219317839
 30
0.0
 40
3.1005387724976639
 50
304.52349215062191
 51
327.8615410412699
  0
LINE
  5
9A7
  8
0
 10
128.62888894909091
 20
123.5493459440202
 30
0.0
 11
128.62888894909091
 21
123.714162089187
 31
0.0
  0
LINE
  5
9A8
  8
0
 10
131.71715462254309
 20
123.8740259441913
 30
0.0
 11
131.7093858741606
 21
124.1621904886331
 31
0.0
  0
ARC
  5
AB2
  8
0
 10
125.729980771849
 20
130.52350554357551
 30
0.0
 40
2.9779681371608402
 50
148.32974182352751
 51
220.6134130417403
  0
ARC
  5
AB3
  8
0
 10
123.1977969645914
 20
130.44431265758141
 30
0.0
 40
3.070765566352637
 50
324.79353776447982
 51
21.64651235682728
  0
ARC
  5
AB4
  8
0
 10
124.5552465774811
 20
129.4559674075949
 30
0.0
 40
1.3920392586446531
 50
218.73237335347909
 51
325.820693166507
  0
LINE
  5
AF7
  8
0
 10
120.106787135226
 20
118.8935074337619
 30
0.0
 11
117.3002421598509
 21
123.52600645485779
 31
0.0
  0
ARC
  5
B3A
  8
0
 10
126.9672101779763
 20
130.81928227065029
 30
0.0
 40
6.952757126992692
 50
222.0654711734424
 51
261.76361328020272
  0
ARC
  5
B3B
  8
0
 10
128.65825007550711
 20
139.9355901438139
 30
0.0
 40
16.221454626733649
 50
260.46503800359471
 51
269.89629354563601
  0
LINE
  5
BAF
  8
0
 10
130.6170318144639
 20
124.8990635687461
 30
0.0
 11
130.7215011317534
 21
124.49140593366489
 31
0.0
  0
ENDSEC
  0
EOF
